<svg width="23" height="23" viewBox="0 0 23 23" fill="none" xmlns="http://www.w3.org/2000/svg">
<g filter="url(#filter0_d_2304_133)">
<path d="M17.3276 2.09458L13.9247 2.09459V1.24737C13.9247 1.0125 13.7345 0.822266 13.4997 0.822266C13.2648 0.822266 13.0747 1.0125 13.0747 1.24737V2.09438H9.67466V1.24737C9.67466 1.0125 9.48447 0.822266 9.24966 0.822266C9.01485 0.822266 8.82466 1.0125 8.82466 1.24737V2.09438H5.42764C4.95822 2.09438 4.57764 2.47505 4.57764 2.94458V13.5721C4.57764 14.0416 4.95822 14.4223 5.42764 14.4223H17.3276C17.797 14.4223 18.1776 14.0416 18.1776 13.5721V2.94458C18.1776 2.47525 17.797 2.09458 17.3276 2.09458ZM17.3276 13.5721H5.42764V2.94458H8.82466V3.37286C8.82466 3.60772 9.01485 3.79796 9.24966 3.79796C9.48447 3.79796 9.67466 3.60772 9.67466 3.37286V2.94479H13.0747V3.37308C13.0747 3.60794 13.2648 3.79818 13.4997 3.79818C13.7345 3.79818 13.9247 3.60794 13.9247 3.37308V2.94479H17.3276V13.5721ZM14.3526 7.62087H15.2026C15.4372 7.62087 15.6276 7.43043 15.6276 7.19577V6.34557C15.6276 6.11092 15.4372 5.92047 15.2026 5.92047H14.3526C14.118 5.92047 13.9276 6.11092 13.9276 6.34557V7.19577C13.9276 7.43043 14.118 7.62087 14.3526 7.62087ZM14.3526 11.0215H15.2026C15.4372 11.0215 15.6276 10.8312 15.6276 10.5964V9.74616C15.6276 9.5115 15.4372 9.32106 15.2026 9.32106H14.3526C14.118 9.32106 13.9276 9.5115 13.9276 9.74616V10.5964C13.9276 10.8314 14.118 11.0215 14.3526 11.0215ZM11.8026 9.32106H10.9526C10.718 9.32106 10.5276 9.5115 10.5276 9.74616V10.5964C10.5276 10.8312 10.718 11.0215 10.9526 11.0215H11.8026C12.0372 11.0215 12.2276 10.8312 12.2276 10.5964V9.74616C12.2276 9.51171 12.0372 9.32106 11.8026 9.32106ZM11.8026 5.92047H10.9526C10.718 5.92047 10.5276 6.11092 10.5276 6.34557V7.19577C10.5276 7.43043 10.718 7.62087 10.9526 7.62087H11.8026C12.0372 7.62087 12.2276 7.43043 12.2276 7.19577V6.34557C12.2276 6.1107 12.0372 5.92047 11.8026 5.92047ZM8.40264 5.92047H7.55264C7.31804 5.92047 7.12764 6.11092 7.12764 6.34557V7.19577C7.12764 7.43043 7.31804 7.62087 7.55264 7.62087H8.40264C8.63724 7.62087 8.82764 7.43043 8.82764 7.19577V6.34557C8.82764 6.1107 8.63724 5.92047 8.40264 5.92047ZM8.40264 9.32106H7.55264C7.31804 9.32106 7.12764 9.5115 7.12764 9.74616V10.5964C7.12764 10.8312 7.31804 11.0215 7.55264 11.0215H8.40264C8.63724 11.0215 8.82764 10.8312 8.82764 10.5964V9.74616C8.82764 9.51171 8.63724 9.32106 8.40264 9.32106Z" fill="#F8F8FB"/>
</g>
<defs>
<filter id="filter0_d_2304_133" x="0.577637" y="0.822266" width="21.6001" height="21.6001" filterUnits="userSpaceOnUse" color-interpolation-filters="sRGB">
<feFlood flood-opacity="0" result="BackgroundImageFix"/>
<feColorMatrix in="SourceAlpha" type="matrix" values="0 0 0 0 0 0 0 0 0 0 0 0 0 0 0 0 0 0 127 0" result="hardAlpha"/>
<feOffset dy="4"/>
<feGaussianBlur stdDeviation="2"/>
<feComposite in2="hardAlpha" operator="out"/>
<feColorMatrix type="matrix" values="0 0 0 0 0 0 0 0 0 0 0 0 0 0 0 0 0 0 0.25 0"/>
<feBlend mode="normal" in2="BackgroundImageFix" result="effect1_dropShadow_2304_133"/>
<feBlend mode="normal" in="SourceGraphic" in2="effect1_dropShadow_2304_133" result="shape"/>
</filter>
</defs>
</svg>
